<mxfile host="Electron" agent="Mozilla/5.0 (Windows NT 10.0; Win64; x64) AppleWebKit/537.36 (KHTML, like Gecko) draw.io/28.0.6 Chrome/138.0.7204.100 Electron/37.2.3 Safari/537.36" version="28.0.6">
  <diagram name="Page-1" id="leL1rRKYqdVQRdPTp1Ok">
    <mxGraphModel dx="1966" dy="796" grid="1" gridSize="10" guides="1" tooltips="1" connect="1" arrows="1" fold="1" page="1" pageScale="1" pageWidth="850" pageHeight="1100" background="none" math="0" shadow="0">
      <root>
        <mxCell id="0" />
        <mxCell id="1" parent="0" />
        <mxCell id="fdAt8DJKUqtN17egAkAn-1" value="USER" style="html=1;dashed=0;whiteSpace=wrap;" vertex="1" parent="1">
          <mxGeometry x="60" y="40" width="100" height="50" as="geometry" />
        </mxCell>
        <mxCell id="fdAt8DJKUqtN17egAkAn-8" value="User credentials" style="endArrow=classic;html=1;rounded=0;exitX=0.25;exitY=1;exitDx=0;exitDy=0;" edge="1" parent="1" source="fdAt8DJKUqtN17egAkAn-1">
          <mxGeometry width="50" height="50" relative="1" as="geometry">
            <mxPoint x="70" y="140" as="sourcePoint" />
            <mxPoint x="85" y="180" as="targetPoint" />
            <Array as="points">
              <mxPoint x="85" y="130" />
            </Array>
          </mxGeometry>
        </mxCell>
        <mxCell id="fdAt8DJKUqtN17egAkAn-11" value="" style="edgeStyle=orthogonalEdgeStyle;rounded=0;orthogonalLoop=1;jettySize=auto;html=1;" edge="1" parent="1" source="fdAt8DJKUqtN17egAkAn-9" target="fdAt8DJKUqtN17egAkAn-1">
          <mxGeometry relative="1" as="geometry">
            <Array as="points">
              <mxPoint x="140" y="150" />
              <mxPoint x="140" y="150" />
            </Array>
          </mxGeometry>
        </mxCell>
        <mxCell id="fdAt8DJKUqtN17egAkAn-12" value="validation response" style="edgeLabel;html=1;align=center;verticalAlign=middle;resizable=0;points=[];" vertex="1" connectable="0" parent="fdAt8DJKUqtN17egAkAn-11">
          <mxGeometry x="-0.4978" y="3" relative="1" as="geometry">
            <mxPoint as="offset" />
          </mxGeometry>
        </mxCell>
        <mxCell id="fdAt8DJKUqtN17egAkAn-9" value="1.0&lt;div&gt;Login&lt;/div&gt;&lt;div&gt;&lt;br&gt;&lt;/div&gt;" style="rounded=1;whiteSpace=wrap;html=1;absoluteArcSize=1;arcSize=8;strokeWidth=2;" vertex="1" parent="1">
          <mxGeometry x="50" y="180" width="120" height="40" as="geometry" />
        </mxCell>
        <mxCell id="fdAt8DJKUqtN17egAkAn-13" value="" style="edgeStyle=elbowEdgeStyle;fontSize=12;html=1;endArrow=blockThin;endFill=1;rounded=0;" edge="1" parent="1">
          <mxGeometry width="160" relative="1" as="geometry">
            <mxPoint x="90" y="220" as="sourcePoint" />
            <mxPoint x="200" y="280" as="targetPoint" />
            <Array as="points">
              <mxPoint x="90" y="260" />
            </Array>
          </mxGeometry>
        </mxCell>
        <mxCell id="fdAt8DJKUqtN17egAkAn-14" value="D1&amp;nbsp; &amp;nbsp; user data" style="html=1;dashed=0;whiteSpace=wrap;shape=mxgraph.dfd.dataStoreID;align=left;spacingLeft=3;points=[[0,0],[0.5,0],[1,0],[0,0.5],[1,0.5],[0,1],[0.5,1],[1,1]];" vertex="1" parent="1">
          <mxGeometry x="200" y="260" width="130" height="30" as="geometry" />
        </mxCell>
        <mxCell id="fdAt8DJKUqtN17egAkAn-16" value="" style="edgeStyle=none;orthogonalLoop=1;jettySize=auto;html=1;rounded=0;" edge="1" parent="1">
          <mxGeometry width="100" relative="1" as="geometry">
            <mxPoint x="270" y="220" as="sourcePoint" />
            <mxPoint x="270" y="210" as="targetPoint" />
            <Array as="points">
              <mxPoint x="270" y="260" />
            </Array>
          </mxGeometry>
        </mxCell>
        <mxCell id="fdAt8DJKUqtN17egAkAn-91" value="validate log" style="edgeLabel;html=1;align=center;verticalAlign=middle;resizable=0;points=[];" vertex="1" connectable="0" parent="fdAt8DJKUqtN17egAkAn-16">
          <mxGeometry x="0.3661" relative="1" as="geometry">
            <mxPoint as="offset" />
          </mxGeometry>
        </mxCell>
        <mxCell id="fdAt8DJKUqtN17egAkAn-17" value="2.0&lt;div&gt;movie search&lt;/div&gt;" style="rounded=1;whiteSpace=wrap;html=1;absoluteArcSize=1;arcSize=22;strokeWidth=2;" vertex="1" parent="1">
          <mxGeometry x="230" y="160" width="170" height="50" as="geometry" />
        </mxCell>
        <mxCell id="fdAt8DJKUqtN17egAkAn-22" value="" style="edgeStyle=segmentEdgeStyle;endArrow=classic;html=1;curved=0;rounded=0;endSize=8;startSize=8;exitX=1;exitY=0.5;exitDx=0;exitDy=0;" edge="1" parent="1" source="fdAt8DJKUqtN17egAkAn-1">
          <mxGeometry width="50" height="50" relative="1" as="geometry">
            <mxPoint x="200" y="65" as="sourcePoint" />
            <mxPoint x="260" y="160" as="targetPoint" />
            <Array as="points">
              <mxPoint x="260" y="65" />
            </Array>
          </mxGeometry>
        </mxCell>
        <mxCell id="fdAt8DJKUqtN17egAkAn-23" value="Movie request" style="edgeLabel;html=1;align=center;verticalAlign=middle;resizable=0;points=[];" vertex="1" connectable="0" parent="fdAt8DJKUqtN17egAkAn-22">
          <mxGeometry x="0.3641" y="2" relative="1" as="geometry">
            <mxPoint as="offset" />
          </mxGeometry>
        </mxCell>
        <mxCell id="fdAt8DJKUqtN17egAkAn-24" value="" style="edgeStyle=segmentEdgeStyle;endArrow=classic;html=1;curved=0;rounded=0;endSize=8;startSize=8;" edge="1" parent="1">
          <mxGeometry width="50" height="50" relative="1" as="geometry">
            <mxPoint x="270" y="160" as="sourcePoint" />
            <mxPoint x="320" y="90" as="targetPoint" />
            <Array as="points">
              <mxPoint x="320" y="160" />
            </Array>
          </mxGeometry>
        </mxCell>
        <mxCell id="fdAt8DJKUqtN17egAkAn-27" value="movie&lt;div&gt;availability&lt;/div&gt;" style="edgeLabel;html=1;align=center;verticalAlign=middle;resizable=0;points=[];" vertex="1" connectable="0" parent="fdAt8DJKUqtN17egAkAn-24">
          <mxGeometry x="0.5667" relative="1" as="geometry">
            <mxPoint as="offset" />
          </mxGeometry>
        </mxCell>
        <mxCell id="fdAt8DJKUqtN17egAkAn-25" value="TMDb&lt;div&gt;API&lt;/div&gt;" style="html=1;dashed=0;whiteSpace=wrap;" vertex="1" parent="1">
          <mxGeometry x="290" y="40" width="100" height="50" as="geometry" />
        </mxCell>
        <mxCell id="fdAt8DJKUqtN17egAkAn-26" value="" style="endArrow=classic;html=1;rounded=0;entryX=0.824;entryY=-0.064;entryDx=0;entryDy=0;entryPerimeter=0;" edge="1" parent="1" target="fdAt8DJKUqtN17egAkAn-17">
          <mxGeometry width="50" height="50" relative="1" as="geometry">
            <mxPoint x="370" y="90" as="sourcePoint" />
            <mxPoint x="370" y="150" as="targetPoint" />
          </mxGeometry>
        </mxCell>
        <mxCell id="fdAt8DJKUqtN17egAkAn-28" value="movie&lt;div&gt;data&lt;/div&gt;" style="edgeLabel;html=1;align=center;verticalAlign=middle;resizable=0;points=[];" vertex="1" connectable="0" parent="fdAt8DJKUqtN17egAkAn-26">
          <mxGeometry x="-0.2215" y="1" relative="1" as="geometry">
            <mxPoint as="offset" />
          </mxGeometry>
        </mxCell>
        <mxCell id="fdAt8DJKUqtN17egAkAn-29" value="" style="endArrow=classic;html=1;rounded=0;" edge="1" parent="1">
          <mxGeometry width="50" height="50" relative="1" as="geometry">
            <mxPoint x="380" y="210" as="sourcePoint" />
            <mxPoint x="380" y="310" as="targetPoint" />
          </mxGeometry>
        </mxCell>
        <mxCell id="fdAt8DJKUqtN17egAkAn-30" value="D2&amp;nbsp; &amp;nbsp; user profile" style="html=1;dashed=0;whiteSpace=wrap;shape=mxgraph.dfd.dataStoreID;align=left;spacingLeft=3;points=[[0,0],[0.5,0],[1,0],[0,0.5],[1,0.5],[0,1],[0.5,1],[1,1]];" vertex="1" parent="1">
          <mxGeometry x="340" y="310" width="100" height="30" as="geometry" />
        </mxCell>
        <mxCell id="fdAt8DJKUqtN17egAkAn-31" value="" style="endArrow=classic;html=1;rounded=0;" edge="1" parent="1">
          <mxGeometry width="50" height="50" relative="1" as="geometry">
            <mxPoint x="400" y="190" as="sourcePoint" />
            <mxPoint x="510" y="190" as="targetPoint" />
            <Array as="points" />
          </mxGeometry>
        </mxCell>
        <mxCell id="fdAt8DJKUqtN17egAkAn-32" value="movie&lt;div&gt;selection&lt;/div&gt;" style="edgeLabel;html=1;align=center;verticalAlign=middle;resizable=0;points=[];" vertex="1" connectable="0" parent="fdAt8DJKUqtN17egAkAn-31">
          <mxGeometry x="-0.0727" y="-2" relative="1" as="geometry">
            <mxPoint as="offset" />
          </mxGeometry>
        </mxCell>
        <mxCell id="fdAt8DJKUqtN17egAkAn-39" value="" style="edgeStyle=orthogonalEdgeStyle;rounded=0;orthogonalLoop=1;jettySize=auto;html=1;" edge="1" parent="1" source="fdAt8DJKUqtN17egAkAn-33" target="fdAt8DJKUqtN17egAkAn-37">
          <mxGeometry relative="1" as="geometry">
            <Array as="points">
              <mxPoint x="580" y="300" />
              <mxPoint x="580" y="300" />
            </Array>
          </mxGeometry>
        </mxCell>
        <mxCell id="fdAt8DJKUqtN17egAkAn-33" value="3.0&lt;div&gt;Add to watchlist&lt;/div&gt;&lt;div&gt;&lt;br&gt;&lt;/div&gt;" style="rounded=1;whiteSpace=wrap;html=1;absoluteArcSize=1;arcSize=14;strokeWidth=2;" vertex="1" parent="1">
          <mxGeometry x="510" y="170" width="130" height="50" as="geometry" />
        </mxCell>
        <mxCell id="fdAt8DJKUqtN17egAkAn-53" style="edgeStyle=orthogonalEdgeStyle;rounded=0;orthogonalLoop=1;jettySize=auto;html=1;entryX=0.217;entryY=1;entryDx=0;entryDy=0;entryPerimeter=0;" edge="1" parent="1" source="fdAt8DJKUqtN17egAkAn-37">
          <mxGeometry relative="1" as="geometry">
            <mxPoint x="749.9549999999999" y="218" as="targetPoint" />
            <Array as="points">
              <mxPoint x="750" y="315" />
            </Array>
          </mxGeometry>
        </mxCell>
        <mxCell id="fdAt8DJKUqtN17egAkAn-81" value="watchlist&lt;div&gt;reminder&lt;/div&gt;&lt;div&gt;trigger&lt;/div&gt;" style="edgeLabel;html=1;align=center;verticalAlign=middle;resizable=0;points=[];" vertex="1" connectable="0" parent="fdAt8DJKUqtN17egAkAn-53">
          <mxGeometry x="-0.2696" y="-3" relative="1" as="geometry">
            <mxPoint as="offset" />
          </mxGeometry>
        </mxCell>
        <mxCell id="fdAt8DJKUqtN17egAkAn-37" value="D3&amp;nbsp; &amp;nbsp; watchlist DB" style="html=1;dashed=0;whiteSpace=wrap;shape=mxgraph.dfd.dataStoreID;align=left;spacingLeft=3;points=[[0,0],[0.5,0],[1,0],[0,0.5],[1,0.5],[0,1],[0.5,1],[1,1]];direction=east;" vertex="1" parent="1">
          <mxGeometry x="530" y="300" width="100" height="30" as="geometry" />
        </mxCell>
        <mxCell id="fdAt8DJKUqtN17egAkAn-46" value="" style="edgeStyle=orthogonalEdgeStyle;rounded=0;orthogonalLoop=1;jettySize=auto;html=1;" edge="1" parent="1">
          <mxGeometry relative="1" as="geometry">
            <mxPoint x="782.5263157894738" y="163" as="sourcePoint" />
            <mxPoint x="782.48" y="120" as="targetPoint" />
            <Array as="points">
              <mxPoint x="782" y="160" />
              <mxPoint x="782" y="160" />
            </Array>
          </mxGeometry>
        </mxCell>
        <mxCell id="fdAt8DJKUqtN17egAkAn-88" value="Notification&lt;div&gt;trigger&lt;/div&gt;" style="edgeLabel;html=1;align=center;verticalAlign=middle;resizable=0;points=[];" vertex="1" connectable="0" parent="fdAt8DJKUqtN17egAkAn-46">
          <mxGeometry x="0.0405" y="2" relative="1" as="geometry">
            <mxPoint as="offset" />
          </mxGeometry>
        </mxCell>
        <mxCell id="fdAt8DJKUqtN17egAkAn-44" value="" style="edgeStyle=none;orthogonalLoop=1;jettySize=auto;html=1;rounded=0;" edge="1" parent="1">
          <mxGeometry width="100" relative="1" as="geometry">
            <mxPoint x="640" y="194.5" as="sourcePoint" />
            <mxPoint x="720" y="195" as="targetPoint" />
            <Array as="points" />
          </mxGeometry>
        </mxCell>
        <mxCell id="fdAt8DJKUqtN17egAkAn-80" value="new&lt;div&gt;movie&lt;/div&gt;&lt;div&gt;added&lt;/div&gt;" style="edgeLabel;html=1;align=center;verticalAlign=middle;resizable=0;points=[];" vertex="1" connectable="0" parent="fdAt8DJKUqtN17egAkAn-44">
          <mxGeometry x="0.2134" relative="1" as="geometry">
            <mxPoint as="offset" />
          </mxGeometry>
        </mxCell>
        <mxCell id="fdAt8DJKUqtN17egAkAn-48" style="edgeStyle=orthogonalEdgeStyle;rounded=0;orthogonalLoop=1;jettySize=auto;html=1;" edge="1" parent="1" source="fdAt8DJKUqtN17egAkAn-47">
          <mxGeometry relative="1" as="geometry">
            <mxPoint x="740" y="50" as="targetPoint" />
            <Array as="points">
              <mxPoint x="740" y="50" />
              <mxPoint x="740" y="50" />
            </Array>
          </mxGeometry>
        </mxCell>
        <mxCell id="fdAt8DJKUqtN17egAkAn-49" style="edgeStyle=orthogonalEdgeStyle;rounded=0;orthogonalLoop=1;jettySize=auto;html=1;" edge="1" parent="1" source="fdAt8DJKUqtN17egAkAn-47">
          <mxGeometry relative="1" as="geometry">
            <mxPoint x="800" y="50" as="targetPoint" />
            <Array as="points">
              <mxPoint x="800" y="50" />
              <mxPoint x="800" y="50" />
            </Array>
          </mxGeometry>
        </mxCell>
        <mxCell id="fdAt8DJKUqtN17egAkAn-47" value="Notification&lt;div&gt;gateway&lt;/div&gt;" style="html=1;dashed=0;whiteSpace=wrap;" vertex="1" parent="1">
          <mxGeometry x="725" y="70" width="100" height="50" as="geometry" />
        </mxCell>
        <mxCell id="fdAt8DJKUqtN17egAkAn-50" value="Email" style="html=1;dashed=0;whiteSpace=wrap;" vertex="1" parent="1">
          <mxGeometry x="690" y="20" width="80" height="30" as="geometry" />
        </mxCell>
        <mxCell id="fdAt8DJKUqtN17egAkAn-51" value="SMS" style="html=1;dashed=0;whiteSpace=wrap;" vertex="1" parent="1">
          <mxGeometry x="790" y="20" width="70" height="30" as="geometry" />
        </mxCell>
        <mxCell id="fdAt8DJKUqtN17egAkAn-75" value="" style="edgeStyle=orthogonalEdgeStyle;rounded=0;orthogonalLoop=1;jettySize=auto;html=1;" edge="1" parent="1" source="fdAt8DJKUqtN17egAkAn-54">
          <mxGeometry relative="1" as="geometry">
            <mxPoint x="170" y="470" as="targetPoint" />
          </mxGeometry>
        </mxCell>
        <mxCell id="fdAt8DJKUqtN17egAkAn-84" value="" style="edgeStyle=orthogonalEdgeStyle;rounded=0;orthogonalLoop=1;jettySize=auto;html=1;exitX=1;exitY=0.5;exitDx=0;exitDy=0;entryX=0.5;entryY=1;entryDx=0;entryDy=0;" edge="1" parent="1" source="fdAt8DJKUqtN17egAkAn-54" target="fdAt8DJKUqtN17egAkAn-82">
          <mxGeometry relative="1" as="geometry">
            <mxPoint x="780" y="240" as="targetPoint" />
            <Array as="points">
              <mxPoint x="240" y="370" />
              <mxPoint x="787" y="370" />
            </Array>
          </mxGeometry>
        </mxCell>
        <mxCell id="fdAt8DJKUqtN17egAkAn-85" value="New journal&lt;div&gt;entry&lt;/div&gt;" style="edgeLabel;html=1;align=center;verticalAlign=middle;resizable=0;points=[];" vertex="1" connectable="0" parent="fdAt8DJKUqtN17egAkAn-84">
          <mxGeometry x="-0.3273" y="-2" relative="1" as="geometry">
            <mxPoint as="offset" />
          </mxGeometry>
        </mxCell>
        <mxCell id="fdAt8DJKUqtN17egAkAn-54" value="5.0&lt;div&gt;Journal entry&lt;/div&gt;" style="rounded=1;whiteSpace=wrap;html=1;absoluteArcSize=1;arcSize=14;strokeWidth=2;" vertex="1" parent="1">
          <mxGeometry x="100" y="360" width="140" height="30" as="geometry" />
        </mxCell>
        <mxCell id="fdAt8DJKUqtN17egAkAn-70" value="" style="edgeStyle=segmentEdgeStyle;endArrow=classic;html=1;curved=0;rounded=0;endSize=8;startSize=8;exitX=0;exitY=0.75;exitDx=0;exitDy=0;entryX=0;entryY=0.5;entryDx=0;entryDy=0;" edge="1" parent="1" source="fdAt8DJKUqtN17egAkAn-1" target="fdAt8DJKUqtN17egAkAn-54">
          <mxGeometry width="50" height="50" relative="1" as="geometry">
            <mxPoint x="-70" y="80" as="sourcePoint" />
            <mxPoint x="-20" y="30" as="targetPoint" />
            <Array as="points">
              <mxPoint x="60" y="80" />
              <mxPoint x="-20" y="80" />
              <mxPoint x="-20" y="375" />
            </Array>
          </mxGeometry>
        </mxCell>
        <mxCell id="fdAt8DJKUqtN17egAkAn-71" value="journal&lt;div&gt;entry&lt;/div&gt;" style="edgeLabel;html=1;align=center;verticalAlign=middle;resizable=0;points=[];" vertex="1" connectable="0" parent="fdAt8DJKUqtN17egAkAn-70">
          <mxGeometry x="-0.3062" y="2" relative="1" as="geometry">
            <mxPoint as="offset" />
          </mxGeometry>
        </mxCell>
        <mxCell id="fdAt8DJKUqtN17egAkAn-86" style="edgeStyle=orthogonalEdgeStyle;rounded=0;orthogonalLoop=1;jettySize=auto;html=1;" edge="1" parent="1" source="fdAt8DJKUqtN17egAkAn-76">
          <mxGeometry relative="1" as="geometry">
            <mxPoint x="830" y="230" as="targetPoint" />
          </mxGeometry>
        </mxCell>
        <mxCell id="fdAt8DJKUqtN17egAkAn-90" value="Journal history" style="edgeLabel;html=1;align=center;verticalAlign=middle;resizable=0;points=[];" vertex="1" connectable="0" parent="fdAt8DJKUqtN17egAkAn-86">
          <mxGeometry x="0.6738" y="2" relative="1" as="geometry">
            <mxPoint as="offset" />
          </mxGeometry>
        </mxCell>
        <mxCell id="fdAt8DJKUqtN17egAkAn-76" value="D4&amp;nbsp; &amp;nbsp; &amp;nbsp;journal DB" style="html=1;dashed=0;whiteSpace=wrap;shape=mxgraph.dfd.dataStoreID;align=left;spacingLeft=3;points=[[0,0],[0.5,0],[1,0],[0,0.5],[1,0.5],[0,1],[0.5,1],[1,1]];" vertex="1" parent="1">
          <mxGeometry x="120" y="470" width="100" height="30" as="geometry" />
        </mxCell>
        <mxCell id="fdAt8DJKUqtN17egAkAn-82" value="4.0&lt;div&gt;Notification&lt;/div&gt;&lt;div&gt;scheduler&lt;/div&gt;" style="rounded=1;whiteSpace=wrap;html=1;absoluteArcSize=1;arcSize=14;strokeWidth=2;" vertex="1" parent="1">
          <mxGeometry x="725" y="165" width="125" height="60" as="geometry" />
        </mxCell>
      </root>
    </mxGraphModel>
  </diagram>
</mxfile>
